<svg width="305" height="42" viewBox="0 0 305 42" fill="none" xmlns="http://www.w3.org/2000/svg">
<path d="M62.6672 33.7978V31.2674C64.1131 33.6893 66.8604 34.2316 68.4149 34.2316C73.0419 34.2316 76.9822 30.2913 76.9822 24.5075C76.9822 18.9767 73.4396 14.7473 68.2341 14.7473C66.4628 14.7473 64.4385 15.3618 63.1732 17.2777V7.95123H56.8833V33.7978H62.6672ZM63.0287 24.4352C63.0287 21.8325 64.6915 20.2419 66.8966 20.2419C68.9571 20.2419 70.6561 21.8325 70.6561 24.4352C70.6561 27.0379 68.9571 28.7369 66.8966 28.7369C64.6915 28.7369 63.0287 27.0741 63.0287 24.4352Z" fill="#170F49"/>
<path d="M92.7994 14.8918C92.5102 14.7834 92.1125 14.7473 91.6426 14.7473C89.1844 14.7473 87.377 16.0848 86.401 18.3622V15.181H80.1472V33.7978H86.4371V26.9656C86.4371 23.0615 88.2084 20.6395 91.3895 20.6395C92.0402 20.6395 92.5102 20.7118 92.7994 20.8564V14.8918Z" fill="#170F49"/>
<path d="M95.2211 33.7978H101.511V15.181H95.2211V33.7978ZM94.968 9.97558C94.968 11.8553 96.414 13.229 98.3299 13.229C100.246 13.229 101.728 11.8553 101.728 9.97558C101.728 8.09583 100.246 6.72217 98.3299 6.72217C96.414 6.72217 94.968 8.09583 94.968 9.97558Z" fill="#170F49"/>
<path d="M110.144 24.5798L103.745 33.7978H110.722L113.758 28.8815L116.795 33.7978H123.772L117.373 24.5798L123.916 15.181H116.759L113.758 20.3504L110.758 15.181H103.601L110.144 24.5798Z" fill="#170F49"/>
<path d="M131.163 18.8321H133.549V26.2788C133.549 30.6167 136.007 33.0025 140.056 33.0025C141.899 33.0025 143.309 32.6049 144.285 32.1349V26.821C143.526 27.3633 142.622 27.5079 141.863 27.5079C140.706 27.5079 139.839 26.821 139.839 25.2305V18.8321H143.779V13.952H139.839V8.92726H133.73V13.952H131.163V18.8321Z" fill="#4A3AFF"/>
<path d="M163.622 24.7605C163.803 24.1822 163.984 23.0615 163.984 22.0855C163.984 16.9885 160.369 13.5182 155.055 13.5182C149.56 13.5182 145.367 17.7838 145.367 23.2784C145.367 28.7731 149.452 33.0025 155.814 33.0025C158.959 33.0025 161.417 32.2072 163.875 30.0021L160.694 26.0258C159.791 26.8933 158.308 27.7609 156.284 27.7609C154.151 27.7609 152.127 26.8572 151.838 24.7605H163.622ZM154.91 18.5068C156.537 18.5068 157.802 19.5189 157.911 21.1095V21.1456H151.729C151.838 19.4466 153.284 18.5068 154.91 18.5068Z" fill="#4A3AFF"/>
<path d="M167.075 13.952V32.5687H173.365V22.7723C173.365 20.4588 174.558 19.0128 176.33 19.0128C178.209 19.0128 179.222 20.1696 179.222 22.3385V32.5687H185.511V22.7723C185.511 20.4588 186.777 19.0128 188.476 19.0128C190.355 19.0128 191.368 20.1696 191.368 22.3385V32.5687H197.658V21.2179C197.658 16.4101 194.983 13.5182 190.464 13.5182C187.319 13.5182 185.62 14.928 184.355 16.5547C183.089 14.5665 181.065 13.5182 178.318 13.5182C176.113 13.5182 174.341 14.2773 173.076 16.1571V13.952H167.075Z" fill="#4A3AFF"/>
<path d="M201.918 39.7985H208.208V30.7613C209.401 32.4964 211.498 33.0025 213.269 33.0025C218.475 33.0025 222.017 28.7731 222.017 23.2423C222.017 17.4584 217.968 13.5182 213.341 13.5182C211.823 13.5182 209.257 14.0604 207.702 16.4824V13.952H201.918V39.7985ZM208.064 23.3146C208.064 20.6757 209.727 19.0128 211.932 19.0128C213.992 19.0128 215.691 20.7118 215.691 23.3146C215.691 25.9173 213.992 27.5079 211.932 27.5079C209.727 27.5079 208.064 25.9173 208.064 23.3146Z" fill="#4A3AFF"/>
<path d="M224.965 27.0018C224.965 30.9059 227.207 33.0025 231.111 33.0025C232.376 33.0025 233.352 32.7856 234.039 32.4603V27.3994C233.569 27.5802 233.135 27.6163 232.81 27.6163C231.364 27.6163 231.255 26.7126 231.255 25.845V6.72217H224.965V27.0018Z" fill="#4A3AFF"/>
<path d="M241.815 33.0025C244.273 33.0025 245.9 31.918 246.623 30.5082V32.5687H252.443V20.9287C252.443 16.3017 249.262 13.5182 243.876 13.5182C240.225 13.5182 237.224 15.1087 235.634 17.1331L238.923 21.0733C239.899 19.9527 241.418 18.8682 243.55 18.8682C245.105 18.8682 246.442 19.4105 246.442 20.9649V21.001L241.635 21.9409C237.73 22.7723 235.561 24.6521 235.561 27.3994C235.561 30.689 238.2 33.0025 241.815 33.0025ZM246.442 24.7967V25.0859C246.442 27.1464 245.286 28.4839 243.297 28.4839C242.177 28.4839 241.562 27.9055 241.562 27.0018C241.562 26.098 242.285 25.6281 243.406 25.3751L246.442 24.7967Z" fill="#4A3AFF"/>
<path d="M254.684 18.8321H257.07V26.2788C257.07 30.6167 259.528 33.0025 263.577 33.0025C265.42 33.0025 266.83 32.6049 267.806 32.1349V26.821C267.047 27.3633 266.143 27.5079 265.384 27.5079C264.227 27.5079 263.36 26.821 263.36 25.2305V18.8321H267.3V13.952H263.36V8.92726H257.251V13.952H254.684V18.8321Z" fill="#4A3AFF"/>
<path d="M287.143 24.7605C287.324 24.1822 287.505 23.0615 287.505 22.0855C287.505 16.9885 283.89 13.5182 278.576 13.5182C273.081 13.5182 268.888 17.7838 268.888 23.2784C268.888 28.7731 272.973 33.0025 279.335 33.0025C282.48 33.0025 284.938 32.2072 287.396 30.0021L284.215 26.0258C283.312 26.8933 281.829 27.7609 279.805 27.7609C277.672 27.7609 275.648 26.8572 275.359 24.7605H287.143ZM278.431 18.5068C280.058 18.5068 281.323 19.5189 281.432 21.1095V21.1456H275.25C275.359 19.4466 276.805 18.5068 278.431 18.5068Z" fill="#4A3AFF"/>
<path d="M297.031 33.0025C301.658 33.0025 304.767 30.4359 304.767 27.1102C304.767 23.423 301.911 22.447 298.983 21.2902C296.344 20.1696 295.223 19.9889 295.223 19.302C295.223 18.6152 296.055 18.2176 297.031 18.2176C298.766 18.2176 299.742 19.049 300.357 20.0973L304.261 17.2777C303.104 15.0726 300.393 13.5182 297.212 13.5182C293.018 13.5182 289.512 15.5425 289.512 19.2659C289.512 22.2663 291.572 23.7484 295.223 25.0497C297.79 25.9535 299.055 26.2788 299.055 27.2548C299.055 27.9417 298.368 28.3031 297.103 28.3031C295.223 28.3031 293.778 27.1464 292.91 25.6643L288.897 28.7369C290.452 31.4843 293.561 33.0025 297.031 33.0025Z" fill="#4A3AFF"/>
<path fill-rule="evenodd" clip-rule="evenodd" d="M34.8602 12.4116C38.1018 12.4116 40.7297 9.78374 40.7297 6.54211C40.7297 3.30047 38.1018 0.672607 34.8602 0.672607C31.6185 0.672607 28.9907 3.30047 28.9907 6.54211C28.9907 9.78374 31.6185 12.4116 34.8602 12.4116Z" fill="#8055FA"/>
<path fill-rule="evenodd" clip-rule="evenodd" d="M34.86 26.4945C38.1016 26.4945 40.7295 23.867 40.7295 20.6258C40.7295 17.3846 38.1016 14.7571 34.86 14.7571C31.6184 14.7571 28.9905 17.3846 28.9905 20.6258C28.9905 23.867 31.6184 26.4945 34.86 26.4945Z" fill="#7550FB"/>
<path fill-rule="evenodd" clip-rule="evenodd" d="M34.86 41.1028C38.1016 41.1028 40.7295 38.4749 40.7295 35.2333C40.7295 31.9916 38.1016 29.3638 34.86 29.3638C31.6184 29.3638 28.9905 31.9916 28.9905 35.2333C28.9905 38.4749 31.6184 41.1028 34.86 41.1028Z" fill="#6A4AFC"/>
<path d="M20.2527 26.4943C23.4939 26.4943 26.1214 23.8667 26.1214 20.6255C26.1214 17.3843 23.4939 14.7568 20.2527 14.7568C17.0115 14.7568 14.384 17.3843 14.384 20.6255C14.384 23.8667 17.0115 26.4943 20.2527 26.4943Z" fill="#6045FD"/>
<path d="M20.2527 26.4943C23.4939 26.4943 26.1214 23.8667 26.1214 20.6255C26.1214 17.3843 23.4939 14.7568 20.2527 14.7568C17.0115 14.7568 14.384 17.3843 14.384 20.6255C14.384 23.8667 17.0115 26.4943 20.2527 26.4943Z" stroke="#A0A3BD"/>
<path fill-rule="evenodd" clip-rule="evenodd" d="M20.2521 41.1025C23.4933 41.1025 26.1208 38.4747 26.1208 35.233C26.1208 31.9914 23.4933 29.3635 20.2521 29.3635C17.0109 29.3635 14.3834 31.9914 14.3834 35.233C14.3834 38.4747 17.0109 41.1025 20.2521 41.1025Z" fill="#553FFE"/>
<path fill-rule="evenodd" clip-rule="evenodd" d="M6.16833 41.1028C9.40996 41.1028 12.0378 38.4749 12.0378 35.2333C12.0378 31.9916 9.40996 29.3638 6.16833 29.3638C2.92669 29.3638 0.298828 31.9916 0.298828 35.2333C0.298828 38.4749 2.92669 41.1028 6.16833 41.1028Z" fill="#4A3AFF"/>
</svg>
